PathFileType	4	(X/Y/Z)	C:/Users/beibeiliu/ov580/test_trc/User1\sequence.30_training_dense_left.trc
DataRate	CameraRate	NumFrames	NumMarkers	Units	OrigDataRate	OrigDataStartFrame	OrigNumFrames
120	120	9	19	mm	120	86	227
Frame#	Time	ThumbCMC			ThumbMCP			ThumbIP			ThumbTip			IndexMCP			IndexPIP			IndexTip			MiddleMCP			MiddlePIP			MiddleTip			RingMCP			RingPIP			RingTip			PinkyMCP			PinkyPIP			PinkyTip			BackHand1			BackHand2			BackHand3	
		X0	Y0	Z0	X1	Y1	Z1	X2	Y2	Z2	X3	Y3	Z3	X4	Y4	Z4	X5	Y5	Z5	X6	Y6	Z6	X7	Y7	Z7	X8	Y8	Z8	X9	Y9	Z9	X10	Y10	Z10	X11	Y11	Z11	X12	Y12	Z12	X13	Y13	Z13	X14	Y14	Z14	X15	Y15	Z15	X16	Y16	Z16	X17	Y17	Z17	X18	Y18	Z18	
85	0.708333	-78.9662	30.9126	67.823	-59.184	40.5826	49.761	-45.1101	53.4691	32.639	-30.9599	68.3465	28.5963	-66.0009	19.6296	-23.3326	-52.6429	1.78543	-38.3622	-37.9167	-25.2952	-44.8988	-95.7529	13.716	-36.0578	-84.2741	1.86504	-62.2632	-74.8099	-12.2118	-84.4161	-119.821	-5.04341	-33.3245	-110.261	-10.3129	-58.5572	-104.775	-24.5848	-83.074	-139.198	-27.3269	-16.0435	-139.003	-34.7336	-31.1174	-143.853	-42.9776	-58.3203	-135.773	8.12225	24.1504	-140.933	12.0889	54.7436	-110.72	32.386	47.1626	
86	0.716667	-76.5543	25.8888	67.9868	-53.044	36.2881	51.6873	-36.9046	49.0126	37.4245	-22.0527	62.9214	29.1343	-62.6594	12.8792	-21.6861	-44.3285	-5.92848	-38.5362	-33.9503	-35.4161	-45.3119	-96.018	7.62985	-34.946	-84.9843	-1.33767	-58.8043	-78.2489	-15.5492	-90.1288	-115.855	-5.07055	-32.0748	-113.02	-12.9691	-60.4718	-109.966	-20.7973	-80.5673	-137.405	-23.7479	-13.2916	-141.766	-32.457	-32.807	-153.296	-38.2835	-51.3402	-131.705	7.19795	25.5846	-137.653	14.6516	53.6643	-105.384	32.0709	45.0269	
87	0.725	-71.4499	23.6311	68.1973	-47.005	32.5794	53.1492	-32.8212	40.5334	34.1472	-15.6674	53.9295	33.8195	-57.9018	6.8102	-23.5748	-45.6236	-11.8841	-39.3356	-34.2599	-39.358	-48.5477	-89.7171	5.88001	-37.2818	-82.0017	-2.80078	-60.0865	-78.4324	-14.8033	-85.8798	-117.454	-6.94157	-31.2848	-112.38	-11.0694	-56.6803	-110.67	-18.7786	-82.424	-137.194	-23.5031	-11.153	-147.29	-32.2469	-28.8546	-157.762	-34.0924	-47.2882	-129.564	8.69231	24.0146	-136.965	13.9137	57.4456	-102.044	29.446	44.1781	
88	0.733333	-68.2876	20.3532	66.4577	-45.2895	25.3831	54.214	-24.5904	38.1994	36.1237	-8.98314	45.7955	30.7336	-58.7927	3.21102	-21.3767	-42.995	-16.0413	-42.7622	-38.4894	-38.3135	-55.3269	-91.5256	-0.216407	-38.4112	-84.9407	-8.18054	-61.9297	-80.5453	-15.1242	-85.4956	-117.296	-9.40569	-28.1451	-113.096	-12.4996	-53.9678	-114.147	-18.7011	-79.3089	-137.497	-23.2227	-9.85384	-145.567	-29.5681	-24.9814	-160.578	-30.5009	-42.065	-125.05	8.52805	26.0384	-134.951	14.1092	55.3204	-96.1829	25.6527	40.5838	
89	0.741667	-66.0602	15.5121	66.0947	-42.2403	19.7577	54.3972	-22.0847	28.0024	37.0702	-5.49928	35.5711	36.9123	-57.9501	-0.684101	-22.328	-46.1007	-16.0126	-45.3549	-36.5722	-33.6958	-64.2786	-90.5466	-2.51243	-37.6215	-83.4761	-8.82315	-61.0168	-85.4471	-15.2998	-87.1544	-114.133	-9.07459	-29.2382	-116.011	-12.4574	-54.0418	-114.204	-16.6942	-78.6811	-139.498	-24.3754	-5.30659	-147.763	-28.7824	-24.3062	-160.255	-25.8685	-45.6355	-125.07	5.00411	25.2054	-133.714	13.6302	55.7779	-93.4676	23.7612	41.0001	
90	0.75	-61.6243	13.7844	69.1587	-39.1133	13.0657	54.4409	-14.4616	23.1626	39.2502	0.972828	28.9544	34.9073	-60.04	-2.05954	-21.8791	-50.8382	-12.1575	-44.1387	-43.6136	-27.2108	-70.0628	-89.8297	-3.78499	-32.1565	-86.8191	-10.3443	-56.9626	-88.6554	-15.1593	-88.4899	-113.138	-9.57713	-25.5731	-115.893	-12.2669	-53.3005	-120.061	-15.3698	-81.4591	-141.429	-25.1929	-7.9225	-145.943	-26.4484	-22.4399	-158.369	-22.9307	-41.1354	-117.826	4.6601	26.2259	-130.072	11.7236	53.9457	-89.2566	22.7149	42.7807	
91	0.758333	-58.7898	10.1208	68.203	-34.319	9.46966	57.2942	-12.8359	14.3815	43.1832	2.61625	18.1642	39.0742	-55.3146	-6.28715	-24.855	-52.3895	-14.0588	-45.5831	-47.3118	-22.2009	-70.3945	-87.4386	-4.6191	-31.2608	-86.4768	-10.873	-61.3915	-91.2175	-14.0188	-88.0801	-113.918	-10.4084	-30.2332	-118.418	-12.915	-51.1303	-121.938	-15.0996	-76.9123	-137.055	-23.6846	-3.67322	-149.76	-26.5891	-21.0178	-163.693	-19.7164	-39.8157	-116.39	4.5803	24.732	-125.187	14.3377	53.1702	-87.4105	16.9576	40.6566	
92	0.766667	-57.6633	4.36952	69.0281	-35.8704	-0.27802	57.3931	-10.8027	7.00351	41.6085	5.75442	9.67945	37.3079	-58.9691	-9.32914	-20.7718	-53.2771	-14.2643	-46.7692	-52.6324	-19.6419	-68.8309	-91.4028	-6.91155	-32.1324	-90.2147	-12.0304	-58.496	-90.7046	-11.5158	-88.6801	-115.733	-11.3646	-27.1716	-118.197	-11.5632	-52.5889	-119.031	-10.9026	-74.3027	-140.103	-22.3882	-4.47759	-149.046	-23.4421	-20.5479	-161.645	-15.8149	-41.6857	-118.293	2.23961	25.4988	-122.211	14.5161	57.9126	-88.9546	13.8539	44.1951	
93	0.775	-58.0403	-0.58297	68.901	-32.5328	-4.8443	55.2709	-12.1031	-2.97319	44.3626	8.04847	2.36382	44.0851	-55.7534	-10.1416	-18.4746	-52.3278	-14.5695	-43.141	-50.1098	-16.0993	-70.6373	-87.1959	-7.84123	-35.0581	-87.6541	-10.3092	-56.5564	-93.1923	-9.99645	-85.5375	-115.153	-11.0509	-28.8725	-116.229	-9.98004	-49.4429	-116.331	-6.3514	-76.3827	-136.785	-20.1543	-6.44356	-147.734	-20.0157	-22.3158	-160.693	-11.3935	-41.5746	-112.612	3.8575	25.1438	-118.079	12.9955	55.8382	-84.387	13.2422	43.3929	
